<svg width="114" height="124" viewBox="0 0 114 124" fill="none" xmlns="http://www.w3.org/2000/svg">
<path d="M35.3242 41.6515L59.515 66.4247L35.3242 91.1979L44.9045 101.01L78.6761 66.4247L44.9045 31.8398L35.3242 41.6515Z" fill="#9EE727"/>
<path d="M69.042 41.6515L94.1288 66.4247L69.042 91.1979L78.9773 101.01L114 66.4247L78.9773 31.8398L69.042 41.6515Z" fill="#9EE727"/>
<path d="M9.9353 101.01L44.9577 66.4247L9.9353 31.8398L0 41.6515L25.0867 66.4247L0 91.1979L9.9353 101.01Z" fill="#9EE727"/>
<path d="M12.67 21.84C10.45 21.84 8.45 21.37 6.67 20.43C4.91 19.49 3.52 18.19 2.5 16.53C1.5 14.87 1 13 1 10.92C1 8.84 1.5 6.97 2.5 5.31C3.52 3.65 4.91 2.35 6.67 1.41C8.45 0.470001 10.45 0 12.67 0C14.89 0 16.88 0.470001 18.64 1.41C20.42 2.35 21.81 3.65 22.81 5.31C23.83 6.97 24.34 8.84 24.34 10.92C24.34 13 23.83 14.87 22.81 16.53C21.81 18.19 20.42 19.49 18.64 20.43C16.88 21.37 14.89 21.84 12.67 21.84ZM12.67 16.92C13.73 16.92 14.69 16.67 15.55 16.17C16.41 15.67 17.09 14.97 17.59 14.07C18.09 13.15 18.34 12.1 18.34 10.92C18.34 9.74 18.09 8.7 17.59 7.8C17.09 6.88 16.41 6.17 15.55 5.67C14.69 5.17 13.73 4.92 12.67 4.92C11.61 4.92 10.65 5.17 9.78997 5.67C8.93 6.17 8.25 6.88 7.75 7.8C7.25 8.7 7 9.74 7 10.92C7 12.1 7.25 13.15 7.75 14.07C8.25 14.97 8.93 15.67 9.78997 16.17C10.65 16.67 11.61 16.92 12.67 16.92ZM45.2866 0.42V21.42H39.4366V14.28C37.8166 14.82 36.3266 15.09 34.9666 15.09C32.0266 15.09 29.7766 14.39 28.2166 12.99C26.6766 11.57 25.9066 9.53 25.9066 6.87V0.42H31.7566V6.21C31.7566 8.91 33.0766 10.26 35.7166 10.26C37.1566 10.26 38.3966 10.02 39.4366 9.54V0.42H45.2866ZM66.6417 16.83V21.42H49.7817V0.42H66.2517V5.01H55.6617V8.55H64.9917V12.99H55.6617V16.83H66.6417ZM90.0058 0.42V21.42H84.0658V13.23H75.9658V21.42H70.0258V0.42H75.9658V8.31H84.0658V0.42H90.0058ZM105.228 7.11C107.808 7.11 109.798 7.69 111.198 8.85C112.598 9.99 113.298 11.69 113.298 13.95C113.298 16.37 112.518 18.22 110.958 19.5C109.398 20.78 107.228 21.42 104.448 21.42H94.518V0.42H100.368V7.11H105.228ZM104.058 17.16C105.058 17.16 105.848 16.89 106.428 16.35C107.028 15.81 107.328 15.05 107.328 14.07C107.328 12.25 106.238 11.34 104.058 11.34H100.368V17.16H104.058Z" fill="#9EE727"/>
<path d="M0 113.88H8.19V116.022H2.73V117.604H5.264C6.44933 117.604 7.35933 117.856 7.994 118.36C8.62867 118.864 8.946 119.587 8.946 120.53C8.946 121.519 8.59133 122.294 7.882 122.854C7.17267 123.405 6.17867 123.68 4.9 123.68H0V113.88ZM4.718 121.692C5.18467 121.692 5.53933 121.599 5.782 121.412C6.02467 121.225 6.146 120.959 6.146 120.614C6.146 119.923 5.67 119.578 4.718 119.578H2.73V121.692H4.718ZM15.375 117.002C16.579 117.002 17.5077 117.273 18.161 117.814C18.8143 118.346 19.141 119.139 19.141 120.194C19.141 121.323 18.777 122.187 18.049 122.784C17.321 123.381 16.3083 123.68 15.011 123.68H10.377V113.88H13.107V117.002H15.375ZM14.829 121.692C15.2957 121.692 15.6643 121.566 15.935 121.314C16.215 121.062 16.355 120.707 16.355 120.25C16.355 119.401 15.8463 118.976 14.829 118.976H13.107V121.692H14.829ZM20.219 113.88H22.949V123.68H20.219V113.88ZM29.8346 123.876C28.8079 123.876 27.8839 123.661 27.0626 123.232C26.2506 122.793 25.6113 122.187 25.1446 121.412C24.6779 120.637 24.4446 119.76 24.4446 118.78C24.4446 117.8 24.6779 116.923 25.1446 116.148C25.6113 115.373 26.2506 114.771 27.0626 114.342C27.8839 113.903 28.8079 113.684 29.8346 113.684C30.7306 113.684 31.5379 113.843 32.2566 114.16C32.9753 114.477 33.5726 114.935 34.0486 115.532L32.2846 117.128C31.6499 116.363 30.8799 115.98 29.9746 115.98C29.4426 115.98 28.9666 116.097 28.5466 116.33C28.1359 116.563 27.8139 116.895 27.5806 117.324C27.3566 117.744 27.2446 118.229 27.2446 118.78C27.2446 119.331 27.3566 119.821 27.5806 120.25C27.8139 120.67 28.1359 120.997 28.5466 121.23C28.9666 121.463 29.4426 121.58 29.9746 121.58C30.8799 121.58 31.6499 121.197 32.2846 120.432L34.0486 122.028C33.5726 122.625 32.9753 123.083 32.2566 123.4C31.5379 123.717 30.7306 123.876 29.8346 123.876ZM43.1148 116.078H40.1188V123.68H37.3888V116.078H34.3788V113.88H43.1148V116.078ZM48.8726 113.88C49.7593 113.88 50.5293 114.029 51.1826 114.328C51.836 114.617 52.34 115.037 52.6946 115.588C53.0493 116.129 53.2266 116.769 53.2266 117.506C53.2266 118.243 53.0493 118.883 52.6946 119.424C52.34 119.965 51.836 120.385 51.1826 120.684C50.5293 120.973 49.7593 121.118 48.8726 121.118H47.1646V123.68H44.3926V113.88H48.8726ZM48.7046 118.934C49.274 118.934 49.7033 118.813 49.9926 118.57C50.282 118.318 50.4266 117.963 50.4266 117.506C50.4266 117.049 50.282 116.694 49.9926 116.442C49.7033 116.19 49.274 116.064 48.7046 116.064H47.1646V118.934H48.7046ZM59.4805 117.002C60.6845 117.002 61.6131 117.273 62.2665 117.814C62.9198 118.346 63.2465 119.139 63.2465 120.194C63.2465 121.323 62.8825 122.187 62.1545 122.784C61.4265 123.381 60.4138 123.68 59.1165 123.68H54.4825V113.88H57.2125V117.002H59.4805ZM58.9345 121.692C59.4011 121.692 59.7698 121.566 60.0405 121.314C60.3205 121.062 60.4605 120.707 60.4605 120.25C60.4605 119.401 59.9518 118.976 58.9345 118.976H57.2125V121.692H58.9345ZM64.3245 113.88H67.0545V123.68H64.3245V113.88ZM69.1661 113.88H71.8961V119.634L75.9421 113.88H78.5461V123.68H75.8161V117.94L71.7841 123.68H69.1661V113.88ZM73.8421 113.292C72.8527 113.292 72.1247 113.101 71.6581 112.718C71.2007 112.335 70.9721 111.766 70.9721 111.01H72.8341C72.8434 111.337 72.9274 111.579 73.0861 111.738C73.2447 111.897 73.4967 111.976 73.8421 111.976C74.1874 111.976 74.4441 111.897 74.6121 111.738C74.7801 111.579 74.8687 111.337 74.8781 111.01H76.7401C76.7401 111.766 76.5067 112.335 76.0401 112.718C75.5734 113.101 74.8407 113.292 73.8421 113.292ZM88.0986 123.876C87.3053 123.876 86.5353 123.778 85.7886 123.582C85.042 123.386 84.4353 123.125 83.9686 122.798L84.8786 120.754C85.3173 121.043 85.826 121.277 86.4046 121.454C86.9833 121.631 87.5526 121.72 88.1126 121.72C89.1766 121.72 89.7086 121.454 89.7086 120.922C89.7086 120.642 89.5546 120.437 89.2466 120.306C88.948 120.166 88.4626 120.021 87.7906 119.872C87.0533 119.713 86.4373 119.545 85.9426 119.368C85.448 119.181 85.0233 118.887 84.6686 118.486C84.314 118.085 84.1366 117.543 84.1366 116.862C84.1366 116.265 84.3 115.728 84.6266 115.252C84.9533 114.767 85.4386 114.384 86.0826 114.104C86.736 113.824 87.534 113.684 88.4766 113.684C89.1206 113.684 89.7553 113.759 90.3806 113.908C91.006 114.048 91.5566 114.258 92.0326 114.538L91.1786 116.596C90.2453 116.092 89.34 115.84 88.4626 115.84C87.912 115.84 87.5106 115.924 87.2586 116.092C87.0066 116.251 86.8806 116.461 86.8806 116.722C86.8806 116.983 87.03 117.179 87.3286 117.31C87.6273 117.441 88.108 117.576 88.7706 117.716C89.5173 117.875 90.1333 118.047 90.6186 118.234C91.1133 118.411 91.538 118.701 91.8926 119.102C92.2566 119.494 92.4386 120.031 92.4386 120.712C92.4386 121.3 92.2753 121.832 91.9486 122.308C91.622 122.784 91.132 123.167 90.4786 123.456C89.8253 123.736 89.032 123.876 88.0986 123.876ZM97.1631 123.876C96.3698 123.876 95.5998 123.778 94.8531 123.582C94.1064 123.386 93.4998 123.125 93.0331 122.798L93.9431 120.754C94.3818 121.043 94.8904 121.277 95.4691 121.454C96.0478 121.631 96.6171 121.72 97.1771 121.72C98.2411 121.72 98.7731 121.454 98.7731 120.922C98.7731 120.642 98.6191 120.437 98.3111 120.306C98.0124 120.166 97.5271 120.021 96.8551 119.872C96.1178 119.713 95.5018 119.545 95.0071 119.368C94.5124 119.181 94.0878 118.887 93.7331 118.486C93.3784 118.085 93.2011 117.543 93.2011 116.862C93.2011 116.265 93.3644 115.728 93.6911 115.252C94.0178 114.767 94.5031 114.384 95.1471 114.104C95.8004 113.824 96.5984 113.684 97.5411 113.684C98.1851 113.684 98.8198 113.759 99.445 113.908C100.07 114.048 100.621 114.258 101.097 114.538L100.243 116.596C99.31 116.092 98.4044 115.84 97.5271 115.84C96.9764 115.84 96.5751 115.924 96.3231 116.092C96.0711 116.251 95.9451 116.461 95.9451 116.722C95.9451 116.983 96.0944 117.179 96.3931 117.31C96.6918 117.441 97.1724 117.576 97.8351 117.716C98.5818 117.875 99.198 118.047 99.683 118.234C100.178 118.411 100.602 118.701 100.957 119.102C101.321 119.494 101.503 120.031 101.503 120.712C101.503 121.3 101.34 121.832 101.013 122.308C100.686 122.784 100.196 123.167 99.543 123.456C98.8898 123.736 98.0964 123.876 97.1631 123.876ZM102.784 113.88H107.418C108.491 113.88 109.443 114.081 110.274 114.482C111.104 114.883 111.748 115.453 112.206 116.19C112.663 116.927 112.892 117.791 112.892 118.78C112.892 119.769 112.663 120.633 112.206 121.37C111.748 122.107 111.104 122.677 110.274 123.078C109.443 123.479 108.491 123.68 107.418 123.68H102.784V113.88ZM107.306 121.468C108.146 121.468 108.818 121.23 109.322 120.754C109.835 120.278 110.092 119.62 110.092 118.78C110.092 117.94 109.835 117.282 109.322 116.806C108.818 116.33 108.146 116.092 107.306 116.092H105.556V121.468H107.306Z" fill="#9EE727"/>
</svg>
